<svg width="387" height="276" viewBox="0 0 387 276" fill="none" xmlns="http://www.w3.org/2000/svg">
<path fill-rule="evenodd" clip-rule="evenodd" d="M164.643 116.322C160.475 119.337 161.139 125.269 162.393 129.58C164.241 135.926 167.921 141.802 172.119 146.866C179.567 155.85 192.21 165.938 203.865 158.051C214.243 151.026 220.79 136.852 223.05 124.913C223.748 121.224 224.678 115.726 221.397 112.952C216.546 108.852 207.988 109.598 202.131 110.126C198.274 110.474 194.553 111.653 190.741 111.1C181.886 109.812 172.03 110.978 164.643 116.322Z" fill="#D5B1C8"/>
<path fill-rule="evenodd" clip-rule="evenodd" d="M344.195 163.336C335.752 174.024 321.397 175.713 308.647 175.608C300.992 175.545 293.321 174.97 285.816 173.413C281.769 172.574 277.75 171.462 273.841 170.126C271.258 169.243 267.413 168.802 266.314 166.041C263.415 158.756 265.548 149.619 266.742 142.224C267.349 138.463 267.805 134.679 268.396 130.915C268.774 128.507 268.954 125.842 269.966 123.589C271.15 120.95 272.646 121.477 275.151 122.205C278.602 123.211 282.146 123.629 285.693 124.169C294.353 125.489 301.908 128.15 309.778 131.921C317.559 135.65 325.108 139.33 332.049 144.515C335.565 147.143 338.595 149.995 341.419 153.343C343.6 155.931 346.854 159.97 344.195 163.336ZM307.287 210.808C307.219 211.959 293.986 208.484 292.245 208.094C280.819 205.537 269.167 202.625 258.38 198.004C248.312 193.692 239.44 188.757 231.517 181.095C227.824 177.524 224.503 173.763 221.324 169.757C219.731 167.75 217.555 167.983 215.778 166.284C214.18 164.756 212.954 163.562 213.454 161.277C217.447 162.326 224.82 168.926 228.959 165.593C231.319 163.694 228.047 161.709 226.536 160.609C223.696 158.539 221.268 155.986 219.01 153.306C222.886 154.056 226.494 155.504 229.867 157.52C231.366 158.416 236.503 161.664 237.699 158.568C238.435 156.662 234.952 154.266 233.866 153.211C231.199 150.622 228.32 147.6 226.904 144.118C230.405 143.308 233.704 146.008 236.088 148.206C238.734 150.648 241.978 153.21 244.197 156.023C245.341 157.474 245.591 159.188 246.485 160.752C247.491 162.513 249.1 164.022 250.638 165.325C253.602 167.835 257.068 169.683 260.626 171.212C268.756 174.705 277.47 177.177 286.136 178.911C290.388 179.762 294.535 180.153 298.85 180.298C302.204 180.41 303.687 181.411 304.968 184.494C308.433 192.838 307.804 202.016 307.287 210.808ZM207.77 147.235C205.831 149.045 203.311 150.181 201.285 151.921C199.501 153.453 197.444 155.087 195.454 156.325C193.329 157.647 191.741 156.72 189.828 155.524C187.582 154.121 185 153.552 182.686 152.296C174.688 147.952 164.903 137.309 166.396 127.535C167.029 123.393 169.175 119.318 173.072 117.438C176.612 115.732 181.757 114.784 185.543 116.211C187.679 117.016 189.208 118.792 190.576 120.539C192.172 122.575 192.783 122.254 194.408 120.291C197.316 116.777 202.111 113.695 206.852 113.769C209.208 113.807 211.549 114.302 213.671 115.278C213.959 115.41 214.119 115.811 214.408 115.946C214.762 116.113 215.344 115.766 215.591 115.922C216.212 116.315 216.833 117.541 217.191 118.163C218.629 120.66 221.219 125.557 218.609 127.659C218.608 127.66 218.725 130.504 218.689 130.828C218.505 132.524 217.918 133.925 217.161 135.476C214.887 140.137 211.53 143.725 207.77 147.235ZM211.636 186.667C209.8 187.237 207.821 181.493 209.583 180.576C211.263 179.702 213.299 186.152 211.636 186.667ZM182.787 179.8C182.151 181.969 181.882 184.432 180.327 186.198C178.902 184.511 178.762 181.399 180.143 179.665C180.932 178.676 183.483 177.429 182.787 179.8ZM241.566 141.783C241.556 141.838 243.776 142.898 242.693 144.057C241.212 145.639 241.416 142.559 241.566 141.783ZM250.742 124.1C250.717 126.294 246.062 125.764 246.095 123.557C246.136 120.842 250.769 121.774 250.742 124.1ZM245.186 105.764C245.647 103.756 253.743 100.961 253.522 104.462C253.412 106.217 244.209 110.035 245.186 105.764ZM162.193 173.882C161.286 174.971 159.996 175.4 158.909 176.236C157.768 177.111 156.953 178.248 155.957 179.276C153.22 182.099 149.927 184.418 146.975 187.011C141.549 191.778 136.35 196.902 130.334 200.945C119.582 208.168 107.114 212.119 94.7366 215.578C93.7111 215.865 90.7574 217.022 89.7429 216.16C88.6487 215.231 89.2052 211.961 89.2556 210.725C89.4608 205.656 90.053 200.527 89.9888 195.466C89.9623 193.387 89.3522 190.432 90.4391 188.53C91.6528 186.406 95.0416 185.784 97.1374 184.985C103.509 182.555 109.646 178.456 115.274 174.659C122.192 169.992 129.179 165.248 136.299 160.891C143.274 156.623 150.968 153.765 158.749 151.327C159.109 152.083 155.396 154.515 154.972 154.856C152.937 156.492 150.722 158.187 149.211 160.345C148.141 161.874 147.044 165.331 149.998 165.42C151.43 165.463 153.547 164.081 154.845 163.634C156.989 162.895 159.199 162.377 161.443 162.04C159.514 164.159 152.977 167.965 154.167 171.489C155.32 174.908 161.995 170.918 164.292 170.918C163.916 172.11 162.969 172.951 162.193 173.882ZM83.3404 183.426C79.0658 184.926 74.6845 185.779 70.273 186.747C66.068 187.671 62.1814 188.366 57.8743 187.826C51.9279 187.08 45.3473 184.622 44.5934 177.879C43.6994 169.89 49.3535 162.549 54.2084 156.817C60.1171 149.844 66.7518 143.61 73.9425 137.965C81.125 132.325 88.8777 127.353 96.9996 123.156C103.179 119.963 110.157 118.024 116.691 115.627C117.934 115.172 121.372 113.57 122.534 114.898C123.474 115.971 122.195 117.759 121.767 118.756C120.931 120.7 120.816 122.656 120.601 124.742C119.638 134.06 118.478 143.376 117.944 152.734C117.796 155.342 117.534 158.07 117.686 160.68C117.771 162.125 118.525 163.966 118.023 165.378C117.058 168.091 112.638 169.886 110.296 171.098C106.103 173.268 101.663 174.887 97.4273 176.961C92.7754 179.241 88.2457 181.704 83.3404 183.426ZM142.621 122.881C143.795 122.72 145.552 122.401 146.598 123.16C147.962 124.149 147.604 125.525 146.344 126.242C145.35 126.81 143.021 126.965 142.038 126.45C140.364 125.574 140.647 123.152 142.621 122.881ZM149.119 144.457C148.171 146.033 144.706 147.067 145.008 144.126C145.267 141.608 150.865 141.556 149.119 144.457ZM147.833 100.066C149.357 100.656 152.123 101.16 152.575 103.116C152.996 104.937 151.267 104.817 150.019 104.315C148.992 103.904 144.42 100.035 147.833 100.066ZM386.635 169.53C385.746 166.073 386.423 162.246 385.932 158.706C385.456 155.274 384.598 152.12 383.368 148.885C380.643 141.724 377.521 135.278 373.105 128.994C364.787 117.159 355.136 106.735 343.483 98.0902C331.978 89.5565 319.239 82.6211 305.743 77.7606C291.433 72.6057 277.029 70.8119 261.938 69.8238C257.431 69.529 252.929 69.1793 248.448 68.6113C245.172 68.1963 241.067 67.6849 237.829 68.6858C235.795 69.3151 234.658 71.0852 236.874 72.2469C238.445 73.0705 240.503 73.1692 242.238 73.3882C240.142 80.0334 236.731 86.7019 231.325 91.2777C226.048 95.7452 218.987 97.2767 212.327 98.4097C208.715 99.0235 204.672 99.4988 201.004 99.2337C198.686 99.0669 196.876 97.9956 195.941 100.379C195.292 102.034 194.984 103.851 194.128 101.351C193.116 98.3955 192.619 98.4143 189.47 97.5747C183.03 95.8581 175.647 94.2918 170.029 90.5789C164.2 86.7271 162.173 80.4959 158.919 74.6934C158.114 73.2593 155.687 70.3567 156.927 68.7132C158.062 67.2105 161.75 67.3604 163.439 67.2036C165.222 67.0382 167.015 67.0313 168.804 66.9618C169.84 66.9221 171.924 67.3457 171.507 65.8014C170.878 63.4738 164.14 63.7722 162.467 63.7343C159.355 63.6648 156.2 63.7366 153.104 64.078C137.753 65.7722 122.264 68.9047 107.409 73.0819C78.5872 81.186 50.6735 96.1191 29.6399 117.632C9.44954 138.283 3.05296 172.648 15.465 199.016C21.9156 212.719 35.9142 218.348 49.484 222.895C56.6418 225.293 64.2209 227.169 71.8297 226.716C75.481 226.499 78.9454 225.518 82.5064 224.779C84.0595 224.456 85.8269 223.942 87.4222 224.072C88.6295 224.17 89.7896 225.276 90.9223 224.688C91.7261 224.271 92.0755 223.074 93.058 222.564C94.2378 221.952 95.6677 221.73 96.9419 221.422C100.483 220.564 103.911 219.172 107.373 218.03C110.952 216.85 114.33 215.33 117.764 213.793C119.498 213.017 123.51 209.861 124.641 212.168C125.156 213.221 124.936 215.252 125.062 216.356C125.282 218.288 125.54 220.215 125.822 222.138C126.444 226.372 127.189 230.589 127.952 234.8C129.329 242.398 131.105 249.672 134.073 256.82C136.442 262.527 138.523 268.996 142.923 273.536C144.844 275.518 147.465 276.41 150.22 275.787C153.354 275.078 154.914 272.238 156.816 269.941C161.002 264.887 167.913 261.015 174.294 259.62C182.108 257.913 189.721 260.41 197.179 262.532C205.069 264.777 213.101 266.916 220.845 269.615C228.062 272.13 235.854 275.844 243.68 275.521C250.505 275.239 256.88 269.696 261.802 265.471C266.745 261.228 272.926 255.015 280.035 255.515C283.564 255.763 286.781 257.462 290.218 258.153C293.993 258.911 298.009 259.019 301.847 259.302C306.611 259.652 317.271 258.413 319.033 252.693C319.295 251.845 319.296 250.097 318.173 249.758C317.14 249.446 316.612 250.651 315.634 250.596C313.643 250.484 312.087 247.02 310.994 245.679C306.58 240.265 300.525 236.227 295.573 231.337C289.98 225.815 285.205 219.124 280.991 212.526C282.896 212.032 284.951 212.853 286.795 213.242C289.036 213.716 291.219 214.288 293.427 214.895C295.86 215.563 298.328 216.023 300.798 216.533C302.64 216.912 305.086 217.027 306.749 217.949C308.201 218.754 309.012 219.619 310.814 219.852C312.647 220.09 314.529 219.89 316.371 219.878C321.351 219.844 326.321 219.751 331.278 219.226C348.794 217.369 367.362 209.977 377.894 195.304C380.759 191.313 383.067 186.892 384.525 182.201C385.664 178.538 387.626 173.376 386.635 169.53Z" fill="black"/>
<path fill-rule="evenodd" clip-rule="evenodd" d="M183.93 42.6322C180.813 43.5975 177.129 42.4617 175.337 39.6853C173.515 36.8622 172.269 33.5953 172.018 30.2325C171.778 27.0104 172.511 23.7481 174.415 21.1029C176.442 18.2889 180.572 15.1349 184.274 16.1121C185.054 16.3182 185.76 16.8141 186.46 17.3063C187.202 17.8282 187.938 18.346 188.75 18.5078C188.958 18.5494 189.105 18.5887 189.214 18.6175C189.361 18.6568 189.439 18.6778 189.509 18.6618C189.589 18.6436 189.657 18.5773 189.805 18.4352C189.889 18.3538 189.999 18.2478 190.151 18.112C190.464 17.8328 190.767 17.4123 191.063 17.001C191.261 16.7245 191.458 16.4516 191.652 16.2291C192.027 15.8008 192.4 15.368 192.775 14.9343C195.183 12.1464 197.637 9.30505 200.58 7.10001C206.678 2.53107 214.784 0.373105 222.35 0.48037C226.952 0.545406 231.267 1.90745 235.556 3.45592C235.916 3.58585 236.278 3.71482 236.642 3.84426L236.643 3.84471C240.088 5.07143 243.64 6.33672 246.399 8.79454C251.885 13.6834 253.314 21.7779 254.212 28.7028C255.184 36.2022 252.505 42.6542 249.731 49.3382V49.3392L249.73 49.3405V49.341C249.307 50.3583 248.883 51.3807 248.469 52.4127C245.536 59.7247 240.152 65.6483 233.753 70.162C230.399 72.5262 226.694 73.9535 222.818 75.2048C222.013 75.4644 221.214 75.7423 220.416 76.0197H220.415C217.305 77.1001 214.205 78.1769 210.853 78.1719C204.454 78.1627 196.263 75.1303 193.538 68.8402C192.297 65.976 193.505 65.4618 195.988 67.0185C196.422 67.2904 196.854 67.5651 197.286 67.8393V67.8398H197.286L197.288 67.8411C200.439 69.8439 203.571 71.8347 207.272 72.7154C215.436 74.6587 225.213 71.6482 232.372 67.6757C239.527 63.7046 244.331 57.7385 247.542 50.3103C250.781 42.8159 252.039 35.4312 250.79 27.3523C249.732 20.5055 247.626 14.2515 241.443 10.5349C228.095 2.51265 210.112 3.15903 198.242 13.5847C196.614 15.0138 195.005 16.4046 193.327 17.7697C192.261 18.6372 191.005 19.6778 191.16 21.1778C191.194 21.5087 191.401 22.0832 191.634 22.7271C192.305 24.5845 193.186 27.0237 190.732 25.8944C189.72 25.4287 188.883 24.7947 188.058 24.17C186.698 23.1408 185.371 22.1362 183.351 21.9506C179.896 21.6325 175.775 24.2806 174.741 27.6137C173.756 30.7942 175.514 35.1456 178.267 36.9696C179.816 37.9961 181.506 37.9458 183.254 37.8937C183.43 37.8887 183.607 37.8832 183.784 37.8791C183.919 37.8759 184.087 37.8672 184.279 37.8572C185.455 37.795 187.509 37.6871 188.056 38.5587C189.181 40.3516 185.211 42.236 183.93 42.6322ZM225.516 56.8198C226.102 55.6722 226.68 54.5374 227.335 53.5118C227.639 53.0361 228.135 52.7075 228.61 52.3926H228.61C228.747 52.3021 228.881 52.2125 229.009 52.1211C230.61 54.6101 229.029 57.2764 227.667 59.5725C227.509 59.839 227.353 60.1004 227.207 60.3559C226.776 61.1054 226.355 61.886 225.931 62.6735C225.024 64.3558 224.1 66.0683 223.03 67.5738C220.42 71.2428 214.743 67.2735 214.574 63.5026C214.445 60.6159 216.494 61.8723 217.81 62.9505C219.164 64.061 219.805 64.3376 221.224 63.1246C223.132 61.4939 224.337 59.1306 225.516 56.8198ZM210.147 46.6523C210.722 42.8662 208.124 45.8063 207.568 47.5476C206.882 49.6961 206.315 52.7308 207.352 54.8628C209.257 58.7764 214.627 56.9113 217.212 54.8322C218.423 53.8574 220.121 51.8268 220.063 50.1344C219.963 47.1897 217.69 48.9553 216.291 50.0412H216.291C216.113 50.1796 215.949 50.3071 215.805 50.4123C215.747 50.4548 215.685 50.5 215.621 50.5475C214.324 51.5037 211.746 53.4035 210.236 52.4634C208.847 51.6001 209.404 49.5494 209.842 47.9361C209.973 47.4548 210.093 47.0124 210.147 46.6523ZM217.83 31.3833C220.897 30.7741 224.846 31.0881 227.514 32.823C230.952 35.0578 226.432 36.667 224.474 36.8672C222.104 37.1085 219.073 37.2685 216.896 36.1081C213.811 34.4632 214.84 31.9784 217.83 31.3833ZM182.819 25.7084C180.475 25.2536 177.203 26.4346 178.817 29.217C180.021 31.2937 182.989 31.9925 185.312 32.5396C185.594 32.6059 185.867 32.6703 186.126 32.7343C188.708 33.3741 189.985 32.4308 189.096 29.5886C188.235 26.8377 185.348 26.1992 182.819 25.7084ZM231.778 54.8116C231.993 53.9127 233.251 50.5334 234.102 53.0141C234.232 53.3953 234.248 53.9547 234.265 54.5521C234.308 56.0616 234.358 57.8162 236.282 57.5611C237.275 57.43 237.745 56.4355 238.181 55.5141C238.398 55.0575 238.605 54.6188 238.863 54.3117C241.488 51.1933 240.683 57.0913 239.997 58.5675C238.486 61.8207 234.256 64.0624 232.158 59.935C231.377 58.3998 231.381 56.462 231.778 54.8116ZM241.657 41.6967C242.875 43.1075 244.904 45.4599 246.235 43.7561C247.534 42.0929 245.299 39.5157 244.185 38.231C244.136 38.1753 244.09 38.1218 244.046 38.071C244.014 38.034 243.98 37.9947 243.945 37.9531C242.937 36.7804 240.353 33.7736 239.042 36.0258C238.221 37.4358 240.145 40.0934 241.06 41.0267C241.223 41.1926 241.425 41.4275 241.657 41.6967ZM205.899 69.3722C204.642 67.9326 204.774 65.2644 205.486 63.5985C206.065 62.2421 207.035 63.9212 207.597 64.8933C207.734 65.1305 207.847 65.3252 207.924 65.4239C208.175 65.747 208.536 66.0464 208.908 66.354C209.681 66.9947 210.497 67.6702 210.444 68.6624C210.314 71.0865 207.003 70.6368 205.899 69.3722Z" fill="black"/>
<path fill-rule="evenodd" clip-rule="evenodd" d="M315.357 51.4561C313.977 51.0827 312.6 50.7093 311.23 50.325C308.042 49.4301 311.054 47.4164 312.948 47.5581C314.414 47.6673 315.845 48.1801 317.254 48.6842C317.876 48.9068 318.494 49.128 319.108 49.3122C325.235 51.1481 330.915 53.1558 336.639 56.0054C337.493 56.4309 341.254 58.4478 338.766 59.3408C337.46 59.8097 334.831 58.3984 332.99 57.4103C332.401 57.0945 331.894 56.8221 331.535 56.6676C326.339 54.4318 320.833 52.9401 315.357 51.4561ZM367.39 96.768C346.894 84.0795 326.484 71.6514 303.302 64.3823C302.094 64.0039 301.718 62.9285 302.352 61.8632C303.02 60.7402 304.304 60.7814 305.442 60.8179L305.539 60.8211C308.538 60.9157 311.468 61.8609 314.304 62.7763L314.665 62.8929C321.151 64.9829 327.329 67.8823 333.42 70.9129C344.1 76.2245 354.377 82.6512 363.797 89.9587C365.767 91.4857 367.786 92.7233 369.927 93.9719C370.06 94.0496 370.198 94.1287 370.34 94.21C371.663 94.9673 373.303 95.9061 373.78 97.3786C375.121 101.523 368.351 97.3631 367.39 96.768ZM36.4225 92.9966C28.9323 98.8114 21.6129 104.866 14.8412 111.502C12.4303 113.865 10.421 116.567 8.41353 119.268C7.49431 120.505 6.57508 121.741 5.61785 122.944C5.51525 123.073 5.40213 123.224 5.27892 123.388C4.50846 124.412 3.35584 125.946 2.09829 125.776C0.498011 125.561 0.174517 122.811 0.225539 121.61C0.400315 117.514 4.14907 113.558 6.82241 110.738C9.82969 107.567 13.0449 104.476 16.3284 101.589C19.9434 98.4097 23.8667 95.6771 27.8647 93.0021C29.3257 92.0245 30.7639 90.9902 32.2052 89.9541C34.6359 88.2069 37.0734 86.4547 39.6368 84.9606C41.56 83.84 44.7532 83.4136 43.7067 86.7869C43.0953 88.7576 40.6939 90.2498 38.5985 91.5519C37.7865 92.0565 37.0207 92.5323 36.4225 92.9966ZM9.59428 84.935C13.8107 83.6252 17.7202 81.5918 21.6298 79.5585C24.1772 78.2336 26.7251 76.9086 29.3573 75.7843C31.2503 74.9754 33.1707 74.2355 35.0907 73.4955C36.8178 72.8296 38.5445 72.1642 40.2515 71.4489C40.4122 71.3813 40.5863 71.3173 40.7654 71.2511C41.6594 70.9211 42.6739 70.5463 42.7948 69.4951C42.9606 68.04 42.1092 68.0834 41.069 68.1364C41.0022 68.1396 40.9339 68.1432 40.8652 68.146C38.4946 68.2525 35.9879 69.3009 33.6191 70.2917C32.6412 70.7012 31.6863 71.1007 30.7744 71.4197C29.9623 71.704 29.1494 71.9814 28.3369 72.2584C25.7922 73.1267 23.2548 73.9928 20.7729 75.0545C17.4706 76.4667 14.0983 77.9278 11.1245 79.9607C11.0191 80.0329 10.9092 80.1065 10.7965 80.1824C9.81183 80.8437 8.62009 81.6444 8.19414 82.7367C7.76774 83.8272 8.0027 85.43 9.59428 84.935Z" fill="black"/>
<path fill-rule="evenodd" clip-rule="evenodd" d="M184.16 56.8427C184.559 55.6764 189.487 42.9243 187.558 42.5399C185.515 42.1318 182.783 49.5307 182.191 50.8675C180.002 55.8043 178.706 61.1013 177.69 66.3969C176.983 70.0843 176.361 73.8616 176.609 77.6312C176.8 80.5284 177.999 80.9671 179.975 82.7422C179.975 73.9425 181.315 65.1716 184.16 56.8427Z" fill="black"/>
</svg>
