<svg width="540" height="278" viewBox="0 0 540 278" fill="none" xmlns="http://www.w3.org/2000/svg">
<path fill-rule="evenodd" clip-rule="evenodd" d="M160.195 137.34C163.075 126.15 165.788 114.717 170.061 103.964C172.735 97.234 175.569 90.5659 178.407 83.9046C178.8 82.9799 178.966 82.0884 179.732 81.6278C180.755 81.013 182.871 81.0262 184.025 80.8148C200.418 77.8099 216.981 75.5165 233.599 74.2263C252.563 72.7539 271.051 73.4276 289.816 76.5162C305.864 79.1574 321.753 82.7977 337.469 86.9662C339.779 87.5787 342.086 88.2043 344.388 88.8477C345.461 89.1473 347.241 89.3003 348.177 89.9259C350.176 91.2631 350.853 96.7419 351.603 99.0628C352.606 102.174 353.191 106.448 355.126 109.095C358.007 113.034 362.392 116.452 365.963 119.727C378.427 131.158 392.089 141.585 408.185 147.236C433.087 155.979 459.346 161.458 485.142 166.875C485.742 167.002 486.343 167.127 486.943 167.251C480.266 174.642 473.587 182.033 466.91 189.423C463.145 193.59 459.38 197.756 455.616 201.923C453.68 204.065 453.892 204.447 451.155 203.85C437.438 200.859 423.745 197.598 410.277 193.623C403.674 191.675 396.958 189.652 390.815 186.497C382.36 182.153 374.424 176.784 366.7 171.27C359.795 166.34 353.053 161.182 346.432 155.879C345.127 154.834 340.417 149.794 338.889 150.122C337.572 150.405 335.291 153.402 334.326 154.274C331.775 156.582 329.213 158.88 326.636 161.159C322.533 164.784 318.343 169.225 313.551 171.954C308.502 174.83 302.714 176.789 297.385 179.079C294.412 180.356 291.436 181.629 288.459 182.898C287.682 183.229 286.598 183.95 285.759 183.968C283.278 184.021 279.676 182.005 277.375 181.22C271.463 179.204 265.595 177.059 259.788 174.759C247.388 169.849 233.761 164.514 223.556 155.678C221.776 154.137 220.036 152.412 218.858 150.353C218.449 149.639 217.842 148.645 217.8 147.801C217.733 146.457 218.489 146.194 219.614 145.353C225.419 141.017 231.677 137.239 237.832 133.428C239.279 132.533 240.728 131.642 242.182 130.759L170.262 136.532C166.906 136.801 163.551 137.07 160.195 137.34Z" fill="#D5B1C8"/>
<path fill-rule="evenodd" clip-rule="evenodd" d="M267.289 0.479457C274.887 0.825843 282.677 1.17882 290.21 2.24788C297.718 3.31236 304.724 6.03658 311.51 9.33543C323.746 15.2823 336.252 22.5114 344.121 33.9508C347.801 39.2996 350.802 44.8998 355.881 49.1102C357.069 50.0944 358.364 51.2781 359.941 51.5794C361.195 51.8189 362.3 51.3119 363.528 51.2512C365.872 51.1349 366.76 52.3695 366.76 54.6961C368.518 53.9943 370.434 53.3595 372.352 53.6173C373.956 53.8333 375.231 54.7998 376.771 55.206C379.549 55.9393 382.269 54.8428 384.911 54.0252C391.586 51.9616 398.917 50.3987 405.929 51.1349C410.549 51.6201 416.145 53.6219 413.754 59.5676C411.77 64.4999 404.353 66.9966 399.668 68.2238C395.683 69.2677 390.325 68.3361 390.662 73.831C390.897 77.6666 391.478 81.7807 395.557 83.0251C397.793 83.7075 405.717 84.7244 401.09 88.1854C397.673 90.7406 396.48 95.2391 393.881 98.6176C390.568 102.924 386.077 106.405 380.828 107.976C374.954 109.735 368.738 109.398 362.704 110.08C366.954 115.941 373.09 119.973 378.675 124.43C384.547 129.116 390.213 134.238 397.01 137.579C403.102 140.573 409.684 142.653 415.975 145.192C422.584 147.859 429.239 150.495 436.06 152.573C449.819 156.763 464.291 159.69 478.437 162.261C485.417 163.53 492.262 163.343 499.313 163.456C506.547 163.573 513.775 164.84 520.875 166.142C524.318 166.774 527.793 167.172 531.234 167.8C532.886 168.102 539.424 168.767 539.659 171.185C540.037 175.122 535.778 177.329 532.658 178.427C531.326 178.896 529.18 178.828 528.026 179.473C526.777 180.171 527.265 181.197 527.122 182.548C526.914 184.512 525.863 185.924 524.251 187.013C522.926 187.909 521.328 187.873 522.242 189.57C522.663 190.352 523.718 190.846 524.204 191.671C524.759 192.612 525.015 193.644 524.902 194.728C524.704 196.624 523.45 198.071 521.702 198.742C518.907 199.814 515.627 199.056 512.764 198.707C507.973 198.125 503.112 198.067 498.386 197.02C493.458 195.928 488.663 194.245 483.729 193.127C481.199 192.553 478.664 192.072 476.192 191.277C474.583 190.76 472.258 189.417 470.545 189.838C468.94 190.232 467.685 192.168 466.636 193.292C465.188 194.843 463.786 196.436 462.315 197.965C461.34 198.977 460.339 199.969 459.275 200.888C458.928 201.186 456.791 202.493 456.761 202.843C456.678 203.834 459.011 203.817 459.511 204.211C462.416 206.505 458.051 207.956 456.168 207.841C451.828 207.577 447.465 207.044 443.166 206.407C432.93 204.89 422.724 203.252 412.937 199.825C403.256 196.436 393.81 192.831 384.856 187.779C376.262 182.93 367.949 177.449 359.831 171.846C355.892 169.126 351.926 166.309 348.599 162.846C345.347 159.458 342.695 155.568 339.997 151.741C333.538 157.976 327.321 164.533 320.381 170.249C313.78 175.686 305.845 178.591 298.167 182.122C298.416 183.727 305.92 184.687 307.29 185.105C313.55 187.008 319.557 190.063 325.646 192.458C335.774 196.443 345.385 201.629 348.758 212.697C352.074 223.579 348.228 234.532 343.537 244.363C337.999 255.967 331.422 266.716 323.471 276.833C320.089 281.137 316.446 285.099 312.735 289.106C309.568 292.526 306.853 296.576 308.18 301.436C310.728 300.641 311.195 302.628 309.529 304.31C308.048 305.805 305.489 306.095 303.511 306.343C297.517 307.094 291.325 306.829 285.323 306.271C274.396 305.253 263.445 302.497 253.552 297.755C248.63 295.396 246.849 299.2 243.464 302.146C240.801 304.464 237.134 305.967 235.11 308.966C233.445 311.434 234.532 315.333 237.99 314.408C240.681 313.688 242.843 310.688 245.693 310.573C250.752 310.368 241.208 317.581 239.986 318.461C242.404 320.622 245.145 317.659 247.583 317.164C249.922 316.69 250.574 317.899 249.328 319.847C248.357 321.366 245.305 322.441 247.334 324.288C249.016 325.819 252.745 326.625 254.81 327.295C261.252 329.388 267.661 330.877 274.367 331.833C276.533 332.142 280.004 331.944 281.76 333.479C284.076 335.502 282.959 338.856 281.787 341.174C277.347 349.956 268.115 354.272 258.634 354.904C252.795 355.293 246.901 354.916 241.043 355.232C234.623 355.576 228.19 356.089 221.756 355.877C211.413 355.537 204.833 348.066 199.677 339.851C196.401 334.631 193.382 329.26 190.546 323.791C189.438 321.654 187.118 319.441 186.723 317.04C186.367 314.878 187.747 313.145 189.088 311.615C192.616 307.591 196.861 304.52 201.009 301.195C203.377 299.296 204.287 297.724 205.341 294.961C206.229 292.635 207.936 291.641 209.439 289.784C211.091 287.743 210.572 287.382 209.283 285.713C207.934 283.966 208.464 281.392 209.031 279.415C209.843 276.578 211.587 275.954 214.189 275.04C216.563 274.207 218.575 272.745 220.679 271.389C231.074 264.69 240.869 257.11 251.393 250.598C261.776 244.173 272.627 238.498 282.536 231.329C274.489 230.248 267.395 225.907 259.804 223.335C255.909 222.016 252.051 220.606 248.282 218.955C246.843 218.325 245.165 217.764 243.881 216.837C242.591 215.905 241.6 214.679 240.248 213.798C237.039 211.705 233.223 210.514 229.772 208.883C226.045 207.122 222.367 205.196 218.903 202.955C215.67 200.861 212.566 198.47 209.878 195.705C207.736 193.503 205.653 190.633 202.622 189.621C202.94 193.841 208.171 197.335 211.037 199.875C215.689 203.995 220.525 207.497 225.725 210.9C219.893 215.894 212.784 219.145 205.954 222.518C198.275 226.31 190.81 230.513 183.162 234.365C176.682 237.627 169.866 240.14 163.28 243.171C156.175 246.442 148.862 249.184 141.449 251.672C134.74 253.923 128.423 256.324 122.093 259.485C115.939 262.557 109.355 264.907 102.771 266.879C95.3749 269.094 88.3177 271.201 81.2038 274.239C74.7892 276.977 68.3482 278.728 61.5593 280.217C59.3168 280.709 56.4374 281.611 54.8667 279.442C53.6761 277.797 53.4972 275.262 53.1556 273.328C51.8469 265.928 51.7431 258.41 50.5657 250.999C46.0973 252.346 41.8644 254.004 37.1501 254.218C34.1864 254.352 32.3853 254.658 31.647 257.891C33.3615 258.085 39.4872 258.17 39.6529 260.596C39.8025 262.785 36.0959 262.808 34.7815 262.868C32.4294 262.975 30.2976 262.589 29.0422 264.89C30.892 265.572 34.9924 264.328 35.8116 266.814C36.8669 270.021 32.0746 270.013 30.3503 270.271C27.3419 270.721 27.6509 273.082 27.8573 275.606C28.1284 278.926 28.3336 282.251 28.7825 285.555C29.7409 292.614 31.3833 299.565 32.1612 306.651C32.8336 312.777 33.2102 318.661 28.8283 323.542C27.0668 325.505 24.6179 327.764 21.8491 327.998C19.039 328.235 19.0902 326.268 17.3411 324.821C16.2692 323.934 14.8496 323.753 13.587 323.274C12.0511 322.693 10.561 321.841 9.18103 320.958C6.63773 319.331 4.41464 317.313 2.61643 314.886C-4.41604 305.39 -6.93017 291.204 -7.62672 279.691C-8.06977 272.37 -7.62781 265.038 -6.95551 257.746C-6.59345 253.818 -6.22915 249.889 -5.75353 245.973C-5.60644 244.76 -5.36006 243.544 -5.26857 242.327C-5.21623 241.631 -5.55238 240.223 -5.1964 239.555C-5.65104 240.407 -6.45621 239.777 -7.25583 239.106C-8.90636 237.721 -8.39824 235.061 -7.51539 233.239C-4.85526 227.75 3.11682 227.536 8.30317 227.11C22.2441 225.962 35.4883 222.227 48.8351 218.237C46.9514 215.418 49.9139 213.558 52.2103 212.589C55.7518 211.095 59.4085 209.782 62.9833 208.356C71.0551 205.135 78.9589 202.132 87.4114 200.076C95.0676 198.215 102.476 195.124 110.03 192.859C117.835 190.518 125.498 187.843 133.174 185.117C148.379 179.717 163.596 174.2 178.352 167.65C182.081 165.994 185.644 164.074 189.243 162.159C192.167 160.603 195.599 159.463 198.078 157.215C200.445 155.069 201.862 152.085 204.435 150.136C206.752 148.381 209.922 148.357 211.842 146.177C214.437 143.23 217.536 141.935 221.06 140.206C222.192 139.651 229.644 136.846 229.493 135.254C224.167 135.254 218.7 136.837 213.434 137.575C207.863 138.355 202.297 139.221 196.686 139.653C187.593 140.351 178.505 140.162 169.452 139.177C168.099 139.031 162.671 137.917 161.735 139.367C161.022 140.472 162.795 141.787 162.812 142.975C162.839 144.717 161.434 145.652 159.842 145.046C156.744 143.869 157.198 138.88 157.487 136.348C158.041 131.505 159.273 126.707 160.35 121.962C153.958 125.213 147.888 129.387 142.384 133.974C138.12 137.527 134.27 142.345 129.267 144.878C124.463 147.311 121.606 145.235 121.804 139.88C121.894 137.426 122.391 135.097 123.242 132.812C123.644 131.732 125.294 128.676 124.521 127.525C120.13 131.024 115.769 134.531 111.16 137.743C107.902 140.013 103.178 143.554 98.925 142.653C95.1679 141.857 95.5354 137.727 96.7266 134.943C97.759 132.529 99.6152 130.385 101.455 128.541C102.976 127.017 105.138 125.652 105.9 123.539C100.854 125.805 95.6592 127.52 90.3728 129.112C86.614 130.245 83.9863 134.947 79.6153 134.252C75.2392 133.557 76.9818 128.153 78.7285 125.804C79.9506 124.16 81.6417 122.712 83.2818 121.498C84.8805 120.312 87.3139 119.28 88.101 117.308C82.9888 118.267 77.8491 119.934 72.5891 119.626C69.4655 119.444 64.2513 118.081 64.8681 113.885C65.4923 109.635 71.1543 109.31 74.338 108.518C78.6786 107.437 82.8329 105.408 87.0216 103.86C95.4718 100.738 104.086 98.2338 112.732 95.745L115.463 94.959C125.222 92.1482 135.036 89.7546 144.916 87.4194C149.799 86.2655 154.665 85.0068 159.587 84.022C164.349 83.0692 169.186 82.5175 173.911 81.3791C169.929 75.3721 174.751 70.4364 179.958 67.5776C176.656 66.9101 173.297 66.5091 170.024 65.7001C167.227 65.0092 164.533 63.9481 161.716 63.3368C156.875 62.2867 152.04 61.7344 147.908 58.7392C140.099 53.0782 139.434 44.0696 146.015 37.2531C152.655 30.3735 162.402 27.152 171.782 26.8317C182.281 26.4742 194.226 28.5075 204.051 32.2223C208.877 34.0471 213.901 36.3674 218.038 39.4754C220.852 41.5889 225.303 45.64 229.08 45.64C224.556 40.1727 219.004 34.5191 218.187 27.1148C217.414 20.1051 220.596 12.6543 225.935 8.1197C236.603 -0.937365 254.209 -0.117465 267.289 0.479457ZM206.465 300.927C203.68 305.255 199.829 308.769 196.193 312.361C194.939 313.599 192.422 315.176 192.3 317.116C192.202 318.701 194.147 320.482 194.997 321.727C199.489 328.312 203.187 335.585 208.674 341.433C214.876 348.041 221.955 349.327 230.737 349.345C240.488 349.367 250.369 350.586 260.102 350.072C268.348 349.636 276.476 345.968 280.576 338.509C277.905 337.133 274.104 337.789 271.209 337.82C267.262 337.861 263.408 337.79 259.508 337.104C255.974 336.483 252.48 335.55 249.156 334.188C247.436 333.483 245.735 332.677 244.151 331.697C242.99 330.981 242.119 329.883 240.98 329.18C236.777 326.587 231.924 334.832 227.433 334.673C224.681 334.577 225.677 331.873 226.822 330.36C228.889 327.628 232.493 325.942 235.215 323.951C232.681 321.62 229.818 324.064 227.406 325.282C224.389 326.805 221.255 328.675 217.885 329.246C218.138 324.906 224.046 322.579 227.305 320.814C228.756 320.028 230.573 319.299 230.931 317.571C231.199 316.272 230.74 314.424 230.603 313.112C230.431 311.444 230.303 310.911 228.525 310.44C226.369 309.87 224.198 310.035 222.039 309.323C216.128 307.372 211.531 304.477 206.465 300.927ZM14.3824 232.529C12.9391 232.929 11.4809 233.275 10.015 233.584C7.11346 234.195 4.2081 234.831 1.29666 235.386C-0.163734 235.664 -1.78526 235.488 -2.2156 236.881C-2.43681 237.595 -1.88013 238.878 -1.78469 239.619C-1.61312 240.957 -1.60206 242.313 -1.58606 243.66C-1.43381 256.07 -4.03019 268.408 -2.88703 280.818C-1.92152 291.305 0.338314 304.566 8.04756 312.377C11.375 315.748 15.4688 319.409 19.6585 321.714C22.9429 323.519 27.5311 318.987 28.2018 315.85C28.6827 313.602 27.8808 311.229 27.3591 309.062C26.6896 306.285 26.0114 303.509 25.3488 300.731C23.934 294.8 22.6471 288.814 22.2406 282.718C22.1071 280.715 22.1357 278.785 22.2487 276.791C22.31 275.708 22.8202 273.098 22.0624 272.171C21.0821 270.971 18.842 271.755 17.5156 271.857C16.0613 271.97 14.6417 271.883 13.221 271.512C9.839 270.628 9.24644 267.943 12.9391 266.698C15.5173 265.83 20.2301 267.088 22.396 265.417C24.9412 263.452 19.7975 263.183 18.5965 263.131C16.997 263.064 11.6922 263.482 11.9631 260.503C12.1634 258.295 16.73 258.147 18.3278 258.053C21.7413 257.854 26.0601 259.131 27.5357 255.018C28.1267 253.37 24.5669 252.534 23.6732 251.717C21.5023 249.731 20.7909 246.327 20.604 243.537C20.4206 240.794 23.1223 231.286 19.0058 231.035C17.7418 230.958 15.6409 232.18 14.3824 232.529ZM216.84 287.402C214.418 290.285 212.324 293.443 210.067 296.455C215.36 299.373 220.773 301.721 226.245 304.229C228.733 305.371 230.478 306.276 232.886 304.546C234.614 303.304 235.909 301.54 237.595 300.249C240.019 298.395 242.551 296.696 245.035 294.929C237.705 292.256 230.263 289.911 222.935 287.232C220.194 286.231 218.819 285.047 216.84 287.402ZM156.484 278.246C158.051 279.835 155.034 284.235 154.439 285.741C159.3 285.356 164.12 284.59 168.893 283.604C170.518 283.269 169.919 285.246 169.311 285.898C168.558 286.706 167.054 286.95 166.049 287.237C162.35 288.297 158.555 288.807 154.758 289.373C156.496 291.509 160.676 294.85 159.33 298.063C156.902 295.972 155.157 293.19 152.471 291.382C151.695 292.539 150.085 296.619 148.321 296.37C145.551 295.977 148.357 291.209 148.936 290.061C147.072 290.061 140.064 291.696 139.086 289.402C138.085 287.055 144.848 287.131 146.098 286.577L145.865 286.293L145.631 286.011C144.697 284.884 143.799 283.774 143.672 282.228C145.763 282.948 147.16 286.222 149.458 286.27C151.637 286.315 152.61 283.043 153.386 281.493C153.828 280.612 155.327 277.073 156.484 278.246ZM392.3 247.383C396.986 251.333 393.802 259.298 390.257 262.88C386.284 266.891 377.44 270.577 372.405 266.487C369.649 264.249 370.643 260.834 371.322 257.857C372.077 254.548 372.546 251.759 375.288 249.489C379.555 245.956 387.546 243.377 392.3 247.383ZM382.788 249.679C378.217 250.65 373.584 255.214 372.498 259.918C371.072 266.086 377.481 266.537 381.702 265.61C387.013 264.444 392.655 260.553 392.926 254.449C393.159 249.181 386.34 248.923 382.788 249.679ZM50.1329 223.01C43.2872 225.556 36.8526 229.04 29.6699 230.551C27.4783 231.012 26.5778 231.516 26.0361 233.557C25.2765 236.412 24.5571 239.306 25.0994 242.29C26.2247 248.485 34.852 247.726 39.6425 247.483C42.1023 247.358 46.8327 247.807 48.9663 246.274C50.5255 245.154 49.8715 243.053 49.6284 241.419C48.7198 235.306 49.711 229.119 50.1329 223.01ZM423.369 163.977C420.848 164.452 416.491 166.505 420.105 169.078C422.515 170.794 426.103 171.003 428.935 171.427C434.468 172.255 440.374 172.97 445.174 176.089C454.07 181.867 452.981 192.771 450.32 201.696C452.236 202.824 457.865 195.45 458.926 194.251C463.227 189.386 467.546 184.536 471.882 179.703C473.739 177.636 458.523 170.495 457.156 169.852C449.928 166.454 443.182 164.217 435.074 163.634C431.229 163.357 427.174 163.26 423.369 163.977ZM391.988 145.89C391.297 147.63 392.507 148.418 393.618 149.621C399.834 156.34 404.21 165.849 407.671 174.189C409.396 178.349 410.605 182.542 411.674 186.9C412.722 191.176 416.052 192.318 420.043 193.532C429.233 196.328 438.909 197.264 448.131 200.025C450.603 200.765 451.088 195.336 451.242 193.959C451.684 190.041 451.274 185.953 449.214 182.5C445.32 175.973 437.513 174.585 430.549 173.473C426.567 172.838 421.32 172.181 418.168 169.461C416.587 168.095 416.362 166.528 417.596 164.832C419.845 161.738 423.806 161.34 427.345 161.087C429.068 160.965 439.74 162.042 440.088 160.781C434.775 159.051 429.321 157.909 424.086 155.931C420.002 154.387 415.885 152.93 411.764 151.485L407.642 150.041C403.451 148.573 399.613 146.786 395.592 145.018C394.082 144.354 392.696 144.107 391.988 145.89ZM482.116 174.199C480.786 175.987 479.466 177.488 478.468 179.497C477.304 181.841 475.373 183.337 473.759 185.349C482.142 186.827 490.139 188.705 498.216 191.412C502.363 192.803 506.647 193.49 510.889 194.485C514.447 195.321 518.239 196.616 521.924 195.85C517.727 190.071 506.535 191.669 503.588 184.67C501.583 179.909 506.51 176.111 510.54 175.285C517.579 173.842 525.081 173.73 532.23 173.216C532.305 170.483 506.355 169.068 503.79 168.847C499.234 168.453 494.479 167.599 489.932 167.442C485.712 167.295 484.332 171.222 482.116 174.199ZM383.095 154.209C380.596 156.624 378.149 159.091 375.652 161.508C374.01 163.098 371.787 164.791 370.492 166.684C368.841 169.102 371.734 170.264 373.662 171.408C378.53 174.297 383.56 176.994 388.513 179.741C392.963 182.21 397.59 185.353 402.502 186.796C405.129 187.569 407.595 188.768 410.129 189.781C408.907 178.82 402.609 168.864 396.801 159.726C395.467 157.627 394.089 155.559 392.756 153.461C392.083 152.405 390.837 149.912 389.428 149.697C387.346 149.379 384.358 152.99 383.095 154.209ZM510.446 182.108C513.491 183.851 516.543 184.737 519.977 183.42C520.821 183.075 521.658 182.711 522.484 182.328C520.196 179.209 513.428 181.11 510.446 182.108ZM258.28 143.961C252.883 146.393 247.11 148.815 242.417 152.483C240.684 153.838 236.813 156.683 237.718 159.263C238.494 161.472 242.78 163.353 244.815 164.026C255.521 167.568 267.706 164.992 277.564 171.491C280.232 173.25 281.101 175.548 283.084 177.861C284.876 179.952 287.144 179.693 289.553 178.825C292.715 177.685 295.63 175.94 298.805 174.821C300.428 174.249 303.187 173.87 303.356 171.681C304.15 161.36 301.947 148.212 292.844 141.898C282.624 134.81 268.527 139.346 258.28 143.961ZM252.493 168.01C252.231 169.319 262.361 171.688 263.461 171.991C269.577 173.675 275.292 177.677 281.627 178.323C282.729 175.868 273.953 171.959 272.565 171.455C266.231 169.156 259.144 168.739 252.493 168.01ZM451.402 163.427C459.082 166.572 466.525 170.422 472.962 175.777C475.182 177.623 480.576 168.861 481.784 167.517C471.556 167.092 461.476 165.142 451.402 163.427ZM307.873 101.785C300.754 106.485 294.554 112.631 286.737 116.233C289.183 116.618 291.854 115.036 294.189 114.481C296.464 113.94 298.764 113.584 300.978 112.819C302.338 112.349 307.955 109.315 309.01 111.371C310.657 114.584 299.056 116.806 297.407 117.354C291.836 119.204 286.303 121.141 280.789 123.154C275.45 125.105 270.113 127.203 264.595 128.603C258.991 130.025 253.049 130.392 247.661 132.601C242.896 134.554 238.801 137.786 234.206 140.068C229.597 142.355 224.358 143.77 220.386 147.175C224.706 151.782 229.814 155.64 235.404 158.577C236.298 151.551 244.539 147.551 250.177 144.85C262.467 138.963 280.925 130.085 293.452 140.062C302.607 147.353 303.848 161.189 303.848 172.021C306.327 171.232 308.592 169.977 310.896 168.792C312.491 167.97 312.509 165.684 312.709 164.158C313.038 161.657 313.715 159.236 314.492 156.837C316.211 151.531 318.363 146.354 320.413 141.17C323.732 132.785 327.822 124.515 329.861 115.693C331.192 109.936 332.776 100.041 325.83 97.183C319.82 94.7115 312.752 98.5643 307.873 101.785ZM276.783 78.3518C275.622 79.1293 276.056 81.4616 276.135 82.6315C276.423 86.8866 276.242 91.1594 276.385 95.4219C276.558 100.616 276.596 110.14 281.955 113.053C285.621 115.044 290.18 112.06 293.106 110.027C298.056 106.59 302.596 102.598 307.614 99.2421C313.563 95.2632 324.836 89.7597 330.529 97.2443C333.61 101.295 333.178 107.331 332.409 112.043C331.395 118.261 329.025 124.159 326.67 129.97C321.807 141.969 316.731 154.164 314.027 166.865C320.193 163.203 324.988 157.924 330.37 153.288C334.358 149.851 340.283 145.903 341.203 140.302C341.412 139.037 342.637 138.136 343.48 137.29C344.576 136.188 345.35 135.073 346.044 133.668C347.578 130.565 348.575 127.212 349.204 123.816C350.522 116.691 349.894 109.599 348.678 102.516C348.128 99.3132 348.935 95.8762 348.188 92.7538C347.669 90.5859 346.139 90.7142 344.101 90.221C336.767 88.4455 329.418 86.7239 322.079 84.9644C319.098 84.2494 315.856 82.9082 312.761 82.9529C310.221 82.9896 308.087 84.5032 305.895 85.5998C302.295 87.3999 296.573 90.5487 292.439 88.7589C287.623 86.6729 293.236 81.9635 290.82 79.7354C289.164 78.2075 284.214 79.1236 281.969 78.7443C280.738 78.5363 277.912 77.5962 276.783 78.3518ZM352.579 139.882C349.076 140.434 347.048 141.952 345.118 144.931C343.158 147.96 342.924 149.459 345.72 151.828C348.735 154.384 351.889 156.908 355.09 159.209C359.147 162.126 363.647 164.334 367.657 167.322C369.413 168.631 377.383 158.371 378.766 156.965C380.674 155.024 382.632 153.077 384.679 151.29C385.426 150.638 387.771 149.124 387.773 148.014C387.775 145.207 381.547 142.696 379.544 141.923C375.053 140.193 370.346 139.494 365.562 139.422C361.321 139.358 356.78 139.22 352.579 139.882ZM368.189 127.536C364.9 129.281 361.465 130.751 358.155 132.46C356.981 133.066 349.579 136.174 349.952 138.031C358.283 137.504 366.577 136.095 374.882 137.707C378.611 138.431 382.165 139.644 385.282 141.884C387.642 143.578 389.441 146.835 391.785 143.936C387 141.227 382.692 137.636 378.449 134.148C376.592 132.622 374.681 131.186 372.796 129.701C371.675 128.818 369.825 126.668 368.189 127.536ZM171.132 86.9656C168.526 87.3312 165.986 88.0215 163.427 88.6139C153.058 91.0139 142.65 93.1686 132.308 95.7083C111.681 100.774 90.4375 105.658 70.7696 113.774C72.4234 115.601 76.8053 114.277 78.8575 113.919C82.8753 113.217 86.774 111.992 90.7431 111.067C94.6251 110.162 98.5214 109.083 102.436 108.329C104.238 107.982 107.418 107.525 107.491 110.225C107.594 114.055 100.15 116.918 97.4173 118.318C94.4955 119.814 91.6671 121.468 88.8858 123.209C86.6868 124.585 82.6317 126.419 81.9186 129.154C89.0543 126.133 96.194 123.124 103.285 120.001C105.956 118.824 108.663 117.716 111.206 116.281C112.901 115.324 115.084 113.645 117.091 113.494C119.81 113.289 120.26 115.756 119.115 117.746C117.681 120.238 114.724 121.644 112.547 123.387C109.774 125.611 107.32 128.233 104.822 130.75C102.749 132.839 100.079 134.896 98.9972 137.72C102.724 138.966 106.958 134.973 109.697 133C114 129.898 118.009 126.525 122.114 123.173C124.215 121.459 126.718 118.682 129.483 118.17C132.986 117.521 132.696 121.523 131.846 123.73C129.947 128.661 125.502 132.773 125.184 138.333C124.989 141.755 127.89 140.453 129.825 139.08C133.084 136.768 135.29 133.244 138.248 130.593C145.372 124.206 153.526 118.758 162.338 114.974C163.915 114.297 164.482 111.866 164.961 110.405C165.677 108.225 166.5 106.111 167.36 103.98C169.244 99.3109 170.789 94.2652 173.43 89.9528C174.166 88.7503 176.066 87.5242 174.494 86.8173C173.64 86.4328 172.014 86.8419 171.132 86.9656ZM246.354 79.0686C243.684 79.3797 240.983 79.3516 238.309 79.6335C233.944 80.0929 235.848 85.3987 235.145 88.5956C233.075 98.0063 223.093 99.7835 215.529 95.344C211.274 92.8455 208.719 89.2648 206.431 85.0762C205.126 82.6882 204.154 82.3044 201.456 82.9019C199.603 83.3122 197.918 83.2251 196.034 83.3614C193.662 83.5333 193.456 84.0357 193.407 86.2907C193.365 88.2937 193.077 89.6807 191.743 91.3032C189.2 94.3929 184.936 96.4274 181.304 97.98C177.665 99.536 173.543 100.693 171.544 104.37C170.537 106.224 169.457 108.437 169.165 110.545C168.847 112.848 169.629 114.277 168.285 116.4C165.492 120.816 164.212 125.642 162.8 130.66C162.339 132.295 162.158 132.967 163.943 133.417C166.506 134.062 170.145 133.083 172.773 132.98C174.65 132.907 175.745 129.602 176.355 128.263C177.54 125.658 178.994 123.193 180.449 120.728C183.748 115.145 187.275 109.599 191.583 104.721C194.836 101.039 199.637 96.456 203.801 101.629C207.86 106.672 210.785 112.577 215.666 116.972C219.959 120.838 224.382 120.899 228.834 117.236C233.218 113.629 236.549 108.708 239.273 103.798C242.219 98.4887 244.441 92.8203 247.313 87.479C248.213 85.8049 252.369 81.276 251.103 79.3361C250.248 78.0259 247.553 78.9288 246.354 79.0686ZM268.707 77.9107C266.357 78.0213 263.993 77.7577 261.643 77.7107C257.391 77.6265 253.835 77.7755 251.7 81.8472C249.815 85.4411 248.209 89.2642 246.489 92.944C242.752 100.938 239.086 109.118 233.349 115.92C228.265 121.947 221.699 124.983 215.086 119.226C212.155 116.673 209.927 113.38 207.823 110.143C206.137 107.548 204.212 102.98 201.386 101.467C198.236 99.7806 194.629 103.65 192.703 105.749C189.465 109.279 186.758 113.43 184.159 117.438C182.274 120.345 180.469 123.314 178.637 126.255C177.894 127.447 174.869 131.348 175.876 132.834C176.886 134.324 181.814 133.305 183.24 133.169C186.644 132.845 190.045 132.728 193.451 132.435C204.046 131.524 214.484 129.198 225.106 128.577C232.103 128.167 238.998 126.815 245.886 125.588C252.583 124.394 259.323 123.579 265.949 122.001C269.845 121.073 273.748 120.144 277.636 119.182C278.981 118.849 285.34 117.941 285.735 116.194C281.357 115.43 279.058 113.732 277.505 109.464C275.56 104.116 275.335 98.1581 275.169 92.5247C275.105 90.3573 275.095 88.1894 275.093 86.0209V83.4199C275.093 81.865 275.764 79.0434 274.362 77.9651C273.064 76.9671 270.21 77.8385 268.707 77.9107ZM355.63 112.438C355.814 119.483 354.554 126.583 351.658 133.02C354.687 133.505 358.29 129.707 360.831 128.435C361.81 127.945 368.291 125.591 366.121 123.792C362.129 120.482 359.511 115.859 355.63 112.438ZM442.495 118.167C443.384 119.919 442.286 122.142 441.692 123.804C446.314 124.914 450.917 126.004 455.575 126.947C459.084 127.656 457.86 129.76 454.814 129.615C450.576 129.414 446.634 127.62 442.418 127.387C438.402 127.165 437.929 130.669 434.505 131.344C434.621 129.416 436.182 128.077 437.303 126.63C435.455 125.683 433.567 124.802 431.775 123.758C430.846 123.218 428.281 120.95 429.268 119.745C430.265 118.529 432.88 120.808 433.81 121.31C435.133 122.024 437.772 123.596 439.328 123.145C441.46 122.527 441.016 119.469 442.495 118.167ZM375.894 72.2629C374.019 72.3929 371.98 71.7627 370.203 72.5871C368.432 73.4099 366.319 75.2105 364.838 76.4589C363.405 77.6678 362.691 79.1356 360.909 79.8494C359.128 80.5627 357.304 80.4997 356.617 82.6756C358.233 83.1185 361.404 82.5313 362.669 83.7178C364.51 85.4445 361.298 87.3449 359.966 87.8886C358.056 88.6678 356.493 88.4151 354.54 88.2685C353.69 88.2054 353.698 87.9442 353.001 88.3653C350.42 89.9248 352.206 95.4735 353.044 97.4981C357.142 107.406 371.145 104.069 379.22 103.054C376.65 100.468 372.442 97.6139 372.23 93.5502C372.166 92.3402 372.466 90.178 374.021 90.0771C375.264 89.9969 376.755 91.8732 377.529 92.6129C379.823 94.8043 382.792 98.4394 386.11 98.754C390.546 99.1745 393.958 91.9947 395.798 88.8637C393.537 88.4392 391.06 88.4644 389.746 86.2472C388.184 83.6124 388.156 79.5762 388.184 76.6096C388.207 74.0842 389.012 71.321 385.634 71.1967C382.522 71.0827 379.037 72.0452 375.894 72.2629ZM78.0538 78.7409C77.4077 80.1497 74.5994 80.7019 73.3664 81.0789C68.6767 82.5101 64.0976 84.3285 59.5254 86.112C50.2951 89.7128 41.1657 93.69 32.7367 98.9814C31.1614 99.9714 31.9336 98.0625 32.3423 97.3744C33.2595 95.8315 35.1867 94.7395 36.6261 93.7948C40.5213 91.2362 44.6469 89.4389 48.9537 87.7276C57.5718 84.3039 66.3212 80.6739 75.1595 77.9004C76.185 77.5784 78.9223 76.8479 78.0538 78.7409ZM185.106 85.7173C183.393 85.8943 181.386 85.5053 179.738 86.0639C177.591 86.7921 177.945 88.2656 177.31 90.0771C176.232 93.152 175.078 96.2016 173.953 99.2604C178.117 99.0662 182.104 95.7725 185.633 93.8767C187.63 92.8031 194.575 89.2413 192.481 85.9802C191.155 83.916 187.009 85.5202 185.106 85.7173ZM232.492 80.3565C229.913 80.3095 227.078 81.0898 224.469 81.2193C220.971 81.3929 217.525 82.058 214.031 82.219C211.732 82.325 209.475 82.7971 207.201 83.1065C209.464 88.3452 213.88 92.9274 219.43 94.8249C223.807 96.3219 229.934 96.5763 232.925 92.4341C234.646 90.0508 237.458 80.4458 232.492 80.3565ZM366.74 58.7168C363.929 60.5834 361.675 63.2578 359.327 65.644C353.444 71.6201 347.357 78.0184 344.811 86.2105C344.461 87.3323 347.114 88.324 347.831 88.3676C349.348 88.4592 349.656 87.6944 350.253 86.4139C351.726 83.2423 352.291 79.6988 354.649 76.9946C357.523 73.6975 360.982 70.4828 364.317 67.6503C366.584 65.7253 372.138 63.0154 372.79 59.8329C373.56 56.0711 368.442 57.587 366.74 58.7168ZM294.222 80.4854C292.632 80.9477 292.505 82.4178 292.143 84.0019C290.681 90.3659 305.461 83.4222 307.519 82.3817C306.834 80.3387 300.099 80.7111 298.538 80.6309C297.324 80.569 295.396 80.1439 294.222 80.4854ZM381.525 83.7911C379.335 83.8753 380.345 74.9355 382.835 75.8344C384.97 76.6062 382.929 83.7361 381.525 83.7911ZM73.6358 73.5118C70.2823 76.4045 65.0171 76.7924 60.8479 77.7211C54.7039 79.0892 48.6132 80.8331 42.5191 82.4069C38.6709 83.4004 40.8372 81.0308 42.7644 80.1411C46.0772 78.6097 49.8279 77.7938 53.3688 76.9516C57.2021 76.0396 61.1196 75.4305 64.9311 74.436C67.5703 73.7467 70.9742 71.9839 73.6358 73.5118ZM177.965 11.3378C181.692 12.0213 185.412 13.2129 188.679 15.1637C191.384 16.7793 191.277 19.2921 187.848 17.8341C171.854 11.0307 152.008 15.1517 136.39 21.1759C134.667 21.8405 134.796 20.391 135.317 19.2738C136.033 17.7344 137.566 16.8412 139.037 16.1262C143.457 13.9783 148.553 12.7632 153.359 11.8712C161.369 10.3839 169.918 9.86137 177.965 11.3378ZM180.302 1.56553C182.335 2.11611 184.669 3.48251 185.912 5.21616C187.367 7.24429 186.21 8.28126 184.192 7.08845C181.939 5.75699 179.879 4.42955 177.293 3.72601C175.928 3.35533 175.984 2.49996 176.964 1.74887C177.882 1.04567 179.306 1.29512 180.302 1.56553Z" fill="black"/>
</svg>
