<svg width="497" height="280" viewBox="0 0 497 280" fill="none" xmlns="http://www.w3.org/2000/svg">
<path fill-rule="evenodd" clip-rule="evenodd" d="M319.064 29.1888C316.845 35.0545 314.628 40.9212 312.41 46.7871C310.988 50.5462 309.567 54.3045 308.146 58.0635C307.641 59.3963 307.361 60.7634 306.386 61.6887C304.088 63.8672 299.963 65.2536 297.202 66.7862C295.352 67.8131 293.501 68.8401 291.651 69.8671C290.697 70.397 288.581 71.0623 287.913 71.9417C287.177 72.9107 287.525 74.6903 287.525 76.0302V87.5988V109.397C297.082 108.203 306.64 107.01 316.197 105.816C303.464 120.495 290.731 135.173 277.998 149.852C274.86 153.469 271.05 156.951 268.712 161.16C263.736 170.119 258.872 179.142 253.953 188.133C249.374 196.501 244.795 204.87 240.216 213.238L281.41 211.486C292.075 211.033 303.031 211.715 313.307 208.695C321.778 206.205 330.249 203.717 338.72 201.228C339.847 200.896 343.356 200.521 344.155 199.615C344.902 198.767 344.887 195.561 345.098 194.475C349.096 173.943 354.186 151.317 365.856 133.643C374.222 120.974 385.512 109.882 395.851 98.8337C399.886 94.5218 403.992 90.2615 407.884 85.8185C408.881 84.6805 410.322 83.3893 410.981 82.0072C411.407 81.1141 412.002 79.4126 411.737 78.6198C411.623 78.276 408.962 77.0428 408.581 76.7979C405.885 75.067 403.213 73.2995 400.535 71.5407C393.01 66.5979 385.492 61.6428 377.924 56.7659C372.025 52.9632 366.141 48.9312 359.918 45.6635C353.467 42.2761 346.363 39.8921 339.6 37.2158C332.766 34.5109 325.919 31.8371 319.064 29.1888Z" fill="#D5B1C8"/>
<path fill-rule="evenodd" clip-rule="evenodd" d="M551.014 342.562C547.732 345.652 541.756 349.798 537.033 347.913C534.66 346.966 532.634 344.887 530.472 343.546C527.934 341.971 525.547 340.395 523.394 338.295C519.1 334.104 515.848 327.982 510.776 324.701C509.072 323.598 505.744 323.362 504.562 321.601C504.032 320.811 503.983 319.613 504.08 318.7C504.292 316.733 505.355 316.849 503.579 315.406H506.338C506.391 314.341 505.327 314.253 504.534 314.39C504.903 312.702 505.278 306.097 502.199 309.091C499.53 311.685 500.865 315.99 498.975 318.8C497.528 320.952 493.687 319.21 493.169 316.842C492.936 315.779 494.109 314.118 494.248 313.075C494.555 310.763 493.522 308.763 492.021 307.012C488.728 309.204 490.594 313.741 488.718 316.622C487.019 319.228 483.238 318.012 480.652 317.553C477.553 317.003 474.048 317.56 471.083 316.829C466.605 315.724 468.277 310.472 467.834 307.082C467.359 303.45 463.686 298.41 464.79 294.746C465.975 290.812 472.906 289.962 476.219 289.008C483.79 286.826 494.59 286.406 500.219 280.297C504.696 285.286 508.298 290.998 512.993 295.8C518.065 300.987 523.483 305.776 528.352 311.172C533.42 316.788 538.651 322.296 543.535 328.075C545.666 330.596 547.537 333.312 549.741 335.773C551.7 337.96 553.766 339.972 551.014 342.562ZM325.966 245.544C328.293 244.308 328.589 245.083 328.588 247.629C327.919 246.406 327.254 246.079 325.966 245.544ZM306.24 295.034V290.547C308.483 290.488 307.104 294.326 306.24 295.034ZM305.691 301.717C305.691 299.73 305.638 297.838 306.211 295.905C306.512 298.011 307.087 299.834 305.691 301.717ZM315.335 438.23C317.395 438.423 320.57 437.005 322.302 438.62C324.082 440.279 323.94 445.109 324.361 447.35C325.058 451.055 325.675 454.772 326.262 458.494C326.647 460.935 327.123 463.414 324.361 464.347C320.28 465.727 314.448 463.758 310.194 463.579C301.79 463.226 293.39 462.735 284.979 462.564C276.827 462.4 268.656 462.53 260.541 463.377C256.875 463.759 253.291 464.436 249.662 465.047C247.75 465.37 242.625 466.72 240.898 465.109C237.648 462.077 243.051 454.998 245.375 452.999C249.688 449.288 255.822 446.613 261.23 445.001C264.12 444.14 268.938 441.722 271.215 444.426C272.962 446.501 272.892 449.27 275.395 450.842C281.195 454.485 277.802 444.037 274.177 442.751C276.611 437.06 281.249 445.095 283.173 447.025C283.858 447.711 286.084 449.976 287.051 448.837C287.775 447.985 286.329 444.931 286.061 444.101C285.654 442.839 284.624 440.919 284.92 439.551C285.456 437.074 288.933 436.4 291.015 436.194C294.244 435.874 297.412 436.897 300.604 437.238C305.5 437.763 310.434 437.771 315.335 438.23ZM282.913 204.974C276.539 205.481 270.124 204.507 263.765 205.304C257.748 206.059 252.078 208.266 246.406 210.293C254.838 190.534 265.748 172.547 279.045 155.696C285.667 147.304 292.789 138.969 299.944 131.027C303.274 127.331 306.717 123.758 310.155 120.167C313.221 116.963 315.418 111.522 319.098 109.129C322.239 107.087 327.729 108.543 331.209 108.67C335.144 108.813 339.932 109.171 343.769 107.862C346.55 106.914 347.314 104.384 343.834 104.3C339.729 104.201 335.691 104.628 331.532 104.243C320.756 103.249 310.369 101.614 299.506 102.541C297.017 102.753 293.742 103.812 291.3 103.494C289.543 103.265 290.698 104.147 289.477 102.739C289.01 102.2 288.447 100.934 288.308 100.219C287.531 96.2005 289.739 90.4584 290.267 86.4129C290.756 82.6689 290.323 78.5539 291.238 74.908C292.071 71.5901 294.61 71.1475 297.736 70.793C306.29 69.8226 315.019 69.3063 323.611 68.5751C343.22 66.9065 363.452 64.3893 382.927 68.5128C389.96 70.0017 398.535 72.3041 404.817 75.9908C406.781 77.1431 408.763 78.5002 408.049 80.8878C407.307 83.3664 403.673 85.9846 401.873 87.6174C388.57 99.6831 375.722 111.99 366.377 127.472C354.459 147.214 347.62 168.535 343.608 191.158C342.745 196.025 341.943 198.572 336.932 199.973C331.551 201.477 326.358 202.455 320.779 202.913C308.168 203.947 295.518 203.969 282.913 204.974ZM287.184 74.2341C286.218 81.4206 284.91 88.5914 284.781 95.8345C284.732 98.5702 284.473 99.9409 281.561 100.551C278.128 101.27 274.638 101.806 271.19 102.552C254.547 106.156 238.218 110.581 221.935 115.563C206.11 120.405 190.546 125.853 174.366 129.44C167.406 130.984 159.261 132.023 152.922 135.44C146.102 139.117 147 145.145 146.388 151.766C145.57 160.611 142.944 169.176 142.021 178.019C141.579 182.244 141.177 186.494 141.244 190.746C141.301 194.37 141.82 198.378 139.382 201.428C134.49 194.894 132.171 186.675 131.207 178.667C130.738 174.774 130.923 170.849 130.789 166.938C130.681 163.79 130.751 158.781 128.698 156.151C124.236 150.436 118.432 173.339 117.88 175.784C116.952 179.901 116.186 184.051 115.261 188.169C114.851 189.993 114.325 196.627 111.878 197.288C106.807 198.659 107.92 184.421 107.84 182.253C107.679 177.878 107.57 173.497 107.673 169.118C107.747 165.957 108.359 162.526 107.996 159.364C107.104 151.599 102.733 159.78 101.505 162.67C98.4002 169.967 96.996 177.777 94.212 185.191C93.7489 186.424 92.6608 190.576 90.9369 190.653C89.0188 190.738 89.0338 186.451 88.9242 185.198C88.2876 177.937 86.138 170.727 86.7867 163.391C87.4418 155.983 90.0409 148.367 93.7188 141.924C101.495 128.302 115.537 120.48 128.987 113.355C144.379 105.202 160.63 98.7614 177.227 93.5142C197.188 87.2035 217.685 82.0974 238.304 78.4637C248.794 76.6153 259.447 75.2933 270.044 74.2334C273.769 73.861 277.495 73.6433 281.171 72.935C282.559 72.6672 287.566 71.3946 287.184 74.2341ZM297.907 50.9773C292.648 51.0188 287.275 48.4715 282.152 47.4187C276.052 46.1641 270.095 44.3486 264.005 43.0388C252.081 40.4743 240.151 37.9735 228.238 35.3524C223.066 34.2144 217.869 33.224 212.718 32.0018C207.206 30.6941 201.252 29.236 195.611 30.6447C187.06 32.7802 183.448 42.1264 180.309 49.4204C178.091 54.5723 176.353 60.3151 172.895 64.7982C171.663 66.3966 169.913 68.303 167.68 67.7852C163.532 66.8241 164.191 61.3399 164.719 58.3085C165.485 53.9092 166.569 49.5615 167.437 45.1822C167.787 43.4148 170.498 31.8471 165.658 33.6379C162.068 34.9664 160.168 43.7163 158.809 46.8415C157.799 49.164 156.729 51.4714 155.596 53.7366C154.083 56.758 149.768 66.8535 144.991 65.5516C138.154 63.6881 144.712 45.7308 145.877 41.946C146.516 39.8684 153.465 24.1127 147.6 25.4003C145.102 25.9496 142.668 30.5852 141.394 32.5066C139.136 35.9146 136.884 39.3471 134.758 42.839C132.571 46.4305 131.455 50.5182 129.286 54.0574C128.144 55.9201 125.816 58.4023 123.542 56.6778C119.997 53.9915 122.098 44.6473 122.719 41.1138C123.874 34.5446 126.742 27.8102 130.678 22.4398C136.593 14.3703 147.752 11.7628 157.137 10.1951C169.25 8.17129 181.531 8.72488 193.695 9.92227C207.376 11.2693 220.847 12.7117 234.331 15.466C247.921 18.2417 261.518 20.9953 274.899 24.6663C281.202 26.3958 287.596 27.929 293.81 29.9593C300.416 32.1171 306.863 34.8024 313.653 36.3572C311.264 42.3119 308.875 48.2667 306.487 54.2221C304.201 51.9627 301.081 50.9515 297.907 50.9773ZM414.976 67.3863C417.071 66.2419 419.385 65.7019 420.149 63.1725C420.825 60.9374 419.67 58.4051 419.118 56.2596C417.574 50.2525 417.168 44.0299 418.534 37.952C419.84 39.9436 424.728 47.6042 427.702 42.9665C429.495 40.1692 424.69 36.1452 423.287 34.1786C426.365 32.2811 430.761 27.1878 434.308 30.2594C436.6 32.2453 437.571 34.1572 440.659 35.1225C444.409 36.2948 447.939 36.0263 451.768 35.7026C454.449 35.4763 455.095 35.1189 456.142 37.1814C456.964 38.8028 457.389 40.8094 457.87 42.5504C458.816 45.9829 461.007 52.7462 458.412 55.9616C456.139 58.7783 447.318 56.3634 446.093 59.9993C445.425 61.9823 448.614 62.0532 449.832 63.0343C451.341 64.2489 452.589 66.1818 453.409 67.9084C454.016 69.1853 454.939 71.295 453.906 72.6006C452.478 74.4067 449.831 73.0367 448.68 71.724C447.152 69.9802 446.656 67.5962 445.381 65.6969C443.04 62.2122 442.901 64.9844 442.263 67.4866C441.602 70.0862 440.036 69.9072 437.639 70.2409C433.432 70.8274 429.18 71.6545 425.085 72.781C422.987 73.3583 420.952 74.0937 418.953 74.9531C417.665 75.506 415.432 77.181 414.035 77.1968C411.445 77.2262 409.649 72.8985 408.312 71.0931C410.532 69.8549 412.746 68.6052 414.976 67.3863ZM554.056 332.377C547.587 324.619 541.986 316.192 535.604 308.367C529.31 300.649 522.028 293.9 514.964 286.91C511.63 283.611 508.436 279.991 504.756 277.068C502.011 274.887 499.898 274.853 496.596 275.819C487.213 278.565 477.659 281.87 468.779 285.967C460.511 289.783 452.98 294.682 444.012 296.809C434.86 298.981 425.343 299.679 415.962 299.14C406.34 298.588 397.264 296.588 388.114 293.648C379.448 290.864 370.412 288.433 363 282.914C355.23 277.129 349.227 268.808 343.664 260.982C340.848 257.02 338.053 252.859 336.155 248.369C334.509 244.473 333.433 239.874 330.478 236.698C329.754 237.724 328.852 238.604 328.483 239.809C328.316 240.357 329.303 240.34 329.202 240.775C329.011 241.595 327.919 242.432 327.283 242.878C325.002 244.482 324.988 243.205 325.587 246.205C325.935 247.954 325.276 251.899 322.421 250.61C323.472 251.867 321.803 253.453 321.257 254.489C320.882 254.058 320.416 253.909 319.858 254.038C320.902 256.115 320.285 256.17 319.274 257.82C319.089 258.121 318.435 259.699 318.529 259.565C317.495 261.036 316.301 261.407 315.698 263.239C315.203 264.743 315.329 266.398 314.778 267.9C314.11 266.978 313.443 266.057 312.776 265.136C312.912 265.86 313.184 266.933 313.501 267.591C313.7 268.002 314.555 268.961 314.543 269.185C314.497 270.023 313.45 269.822 313.152 270.545C312.592 271.9 313.401 272.1 313.096 273.423C312.746 274.941 311.807 274.334 311.361 275.628C311.276 275.874 311.935 276.84 311.831 277.37C311.684 278.119 311.004 278.538 310.764 279.204C310.153 280.899 310.376 282.139 309.528 283.764C309.199 284.394 308.721 284.814 308.49 285.53C308.287 286.16 308.723 287.502 308.332 288.066C306.441 290.787 306.707 286.1 306.85 284.938C308.054 275.179 311.915 265.107 315.449 255.985C317.205 251.454 318.915 246.78 321.116 242.44C322.002 240.691 323.025 238.887 324.489 237.55C326.342 235.859 328.969 235.182 330.647 233.293C330.382 233.591 332.465 231.621 332.132 232.269C332.43 231.69 331.91 230.907 332.095 230.347C332.325 229.651 332.76 229.505 333.244 228.897C334.115 227.804 335.15 227.259 333.782 225.867C335.812 225.419 336.782 224.761 337.188 222.589C337.484 221 336.886 221.103 337.93 220.044C338.977 218.98 339.508 219.811 340.168 217.968C340.957 215.763 341.481 212.765 341.954 210.457C342.367 208.443 341.365 205.48 343.065 204.058C345.217 202.257 347.143 203.019 346.757 199.397C346.381 195.866 347.479 193.727 348.583 190.385C350.786 183.714 351.637 176.671 353.568 169.921C357.691 155.515 364.973 142.526 372.803 129.845C380.038 118.127 390.154 108.144 399.922 98.5301C402.596 95.8968 405.241 93.2256 407.642 90.3388C409.711 87.8531 410.656 84.4686 412.644 82.1089C413.852 80.6758 416.1 80.0628 417.787 79.303C420.6 78.0354 423.951 76.3818 427.126 76.6382C425.865 80.8871 425.453 85.8521 429.176 89.0383C433.693 92.9033 437.786 88.8879 441.927 86.6843C449.473 82.6674 460.266 86.3549 466.846 80.3342C468.414 78.9005 468.851 76.6096 470.479 75.2704C471.675 74.2885 473.376 74.0393 474.722 73.3074C478.811 71.0838 480.796 67.0132 479.204 62.5165C477.749 58.4059 475.488 56.98 480.521 54.8967C484.607 53.2066 486.16 50.66 484.311 46.1261C482.547 41.8034 479.318 41.3057 476.261 38.4769C473.301 35.737 476.701 32.5482 478.919 30.4914C481.779 27.8381 482.326 25.4469 479.01 22.6876C475.538 19.7986 470.581 19.8996 466.533 21.3283C461.956 22.9432 458.94 25.6281 457.004 29.9787C455.031 34.4078 450.142 33.1717 446.182 31.9373C442.395 30.7571 441.41 28.2105 438.923 25.4684C436.158 22.4183 430.522 25.0265 427.26 26.4201C419.226 29.8505 411.243 35.2643 410.924 44.8542C410.734 50.5726 413.154 55.4331 414.413 60.8006C415.564 65.7091 407.672 65.3224 406.305 70.0704C391.724 62.359 375.487 59.9993 359.188 59.4743C341.865 58.9157 324.293 58.4682 307.118 61.1981C311.105 54.2587 313.21 46.6489 316.678 39.5197C317.677 37.4672 318.107 37.6426 320.31 38.2628C324.543 39.4538 328.744 40.7865 332.968 42.0133C348.4 46.4949 363.528 51.8947 378.448 57.8086C379.899 58.3837 383.136 59.9799 384.407 58.244C385.874 56.2424 382.481 53.7745 381.108 52.7676C375.1 48.3641 367.654 45.6914 360.926 42.6019C346.215 35.8494 329.925 32.6441 314.575 27.629C281.439 16.8001 247.157 8.57592 212.721 3.14395C204.317 1.81837 195.824 1.62429 187.383 0.640305C179.907 -0.231244 172.417 -0.211192 164.942 0.689004C151.135 2.35261 135.128 5.94193 127.33 18.569C120.29 29.9701 115.591 42.7881 117.387 56.3118C117.927 60.3738 119.649 65.1842 124.666 64.1372C128.146 63.411 129.994 60.4569 131.609 57.5737C134.051 53.2181 136.462 48.8625 139.108 44.6236C140.089 50.9794 136.523 57.2292 137.084 63.7039C137.465 68.0974 139.895 75.0391 145.604 73.7951C153.429 72.0907 156.65 59.8768 160.412 54.0173C160.603 58.5305 159.02 62.9784 159.504 67.5016C159.982 71.9697 163.477 76.1878 168.385 75.5755C173.014 74.9982 176.022 70.0432 177.988 66.3128C180.724 61.1215 182.69 55.5556 185.362 50.3299C187.866 45.4314 190.833 39.5999 196.813 38.6796C202.149 37.8575 208.265 39.7603 213.536 40.5452C228.158 42.7223 242.486 46.429 256.948 49.4239C272.454 52.6344 288.327 54.5845 303.355 59.7651C298.071 66.9509 284.243 65.3983 276.371 66.1696C264.475 67.3355 252.426 68.2127 240.598 69.9329C228.915 71.6316 217.477 74.6473 205.886 76.8366C194.356 79.0144 182.845 81.1958 171.688 84.9097C150.974 91.8055 129.913 100.532 111.662 112.564C103.171 118.163 95.6269 124.562 90.3814 133.399C85.1022 142.292 82.5655 152.347 81.5978 162.576C80.9957 168.945 82.0185 174.457 83.2536 180.656C84.1481 185.144 84.4377 192.659 88.0396 195.945C94.9144 202.218 100.622 176.775 101.892 173.702C102.806 178.738 101.311 207.109 112.342 204.801C117.265 203.772 118.382 197.021 119.198 192.955C120.688 185.542 122.022 177.98 124.569 170.841C126.204 180.46 126.886 190.482 130.408 199.669C132.748 205.771 139.423 216.597 144.077 206.152C147.568 198.318 146.37 189.327 146.789 181.009C147.253 171.793 149.901 162.902 150.839 153.776C151.202 150.24 150.873 146.255 154.429 144.326C157.482 142.67 161.946 142.131 165.28 141.207C175.152 138.468 185.089 135.951 194.915 133.045C204.745 130.138 214.439 126.741 224.138 123.426C233.414 120.256 242.885 118.453 252.274 115.738C257.612 114.194 262.885 112.579 268.298 111.29C270.816 110.691 273.366 110.224 275.879 109.603C277.742 109.143 280.196 107.408 282.112 107.439C284.083 107.471 284.824 109.138 287.084 109.269C289.518 109.41 291.992 108.873 294.412 108.688C300.308 108.236 306.574 107.506 312.457 108.322C308.921 112.511 304.147 115.407 299.962 118.878C295.136 122.88 290.465 127.202 286.343 131.929C278.048 141.439 270.209 151.492 262.925 161.795C255.741 171.959 249.956 183.082 244.927 194.446C242.421 200.108 239.988 205.895 238.257 211.847C237.546 214.291 236.966 216.746 235.682 218.969C234.504 221.009 232.845 222.767 234.237 225.23C235.195 224.63 236.056 223.886 236.923 223.166C235.921 230.214 233.76 237.031 232.649 244.057C231.554 250.98 231.598 258.099 231.669 265.09C231.818 279.731 232.908 294.04 235.88 308.401C238.887 322.922 242.749 337.333 247.619 351.342C252.307 364.83 257.011 378.974 263.555 391.687C270.543 405.265 278.857 419.54 288.974 431.034C282.365 433.738 273.956 433.232 266.959 434.322C259.644 435.46 253.317 437.609 247.084 441.653C240.778 445.745 237.354 451.013 236.483 458.474C235.863 463.784 234.023 471.136 240.996 472.531C246.012 473.534 251.618 471.886 256.644 471.479C265.435 470.767 274.238 470.322 283.049 469.938C291.836 469.555 300.625 469.218 309.415 468.946C313.55 468.818 317.686 468.753 321.819 468.605C323.672 468.539 324.795 468.51 326.456 469.045C327.769 469.469 327.673 470.347 329.135 469.261C331.493 467.508 331.008 461.983 330.942 459.554C330.842 455.805 330.486 452.013 329.754 448.335C329.32 446.149 324.047 432.061 328.147 431.468C323.384 426.238 321.482 418.771 319.342 412.217C316.661 404.006 314.308 395.817 312.461 387.372C308.515 369.331 306.771 351.094 306.771 332.635C325.062 343.9 344.415 350.001 365.959 350.681C387.378 351.358 410.91 349.601 431.249 342.482C440.668 339.184 449.105 334.855 457.18 329.022C460.074 326.931 463.175 322.196 466.974 322.277C471.508 322.374 476.585 324.089 481.087 324.822C489.697 326.224 500.935 327.016 508.225 332.337C512.185 335.227 515.023 339.273 518.556 342.603C521.244 345.136 524.799 346.512 527.467 349.046C530.346 351.779 529.202 355.351 533.975 355.572C538.055 355.76 542.529 354.12 546.048 352.195C553.068 348.355 560.544 340.157 554.056 332.377Z" fill="black"/>
<path fill-rule="evenodd" clip-rule="evenodd" d="M439.965 46.7835C442.385 48.4378 447.208 48.3805 449.437 46.3287C451.706 44.2412 448.677 43.9203 446.829 43.9841C445.408 44.0335 442.747 44.7375 443.557 42.2847C444.276 40.1083 448.228 41.2162 448.558 38.8271C445.584 38.2943 442.308 38.4862 440.108 40.8216C438.517 42.5095 437.7 45.2345 439.965 46.7835Z" fill="black"/>
<path fill-rule="evenodd" clip-rule="evenodd" d="M42.0675 75.8089C49.6473 81.2348 58.3413 84.9414 66.2622 89.828C68.2448 91.0511 74.4216 93.5906 74.3619 95.8593C74.327 97.1858 72.4707 98.8491 71.6579 99.7685C70.2655 101.343 68.9556 102.935 67.6705 104.601C61.7888 112.23 56.2498 119.931 49.8752 127.177C48.9153 128.267 46.0242 133.471 45.0908 130.886C44.6677 129.714 45.0162 128.397 43.9136 127.305C43.3462 126.742 41.1531 126.432 41.7919 125.225C42.2177 125.417 42.6439 125.611 43.0701 125.803C42.7391 124.839 42.7634 123.782 42.2674 122.87C41.959 122.303 41.3567 122.035 41.1478 121.397C40.8591 120.516 41.3488 119.492 41.2668 118.583C41.1859 117.677 40.72 116.821 40.4418 115.966C38.7924 110.898 38.2006 105.79 37.3561 100.562C36.5205 95.3887 35.219 90.3774 34.7082 85.1466C34.1682 79.6215 33.5067 74.1077 32.6241 68.6269C34.1995 68.8497 35.4105 70.5748 36.5247 71.5501C38.2762 73.0828 40.1779 74.4562 42.0675 75.8089ZM36.1255 129.299C35.7637 129.013 35.4808 128.661 35.2767 128.244C38.9918 126.39 36.75 129.554 36.1255 129.299ZM33.8663 125.343C32.247 125.793 31.0836 125.884 29.835 125.213C29.7165 125.149 29.853 124.659 29.6393 124.558C29.4526 124.47 29.1676 124.579 29.0079 124.497C28.4642 124.218 27.5123 124.829 27.4198 123.762C29.4865 123.124 31.5188 121.948 33.7008 121.75C36.7331 121.475 36.593 124.586 33.8663 125.343ZM26.7714 119.193C24.5619 119.714 22.7417 120.93 20.3942 120.612C18.1905 120.315 16.2756 119.163 14.5374 117.836C18.886 116.596 23.4461 116.372 27.791 115.172C29.2056 114.781 31.0645 113.751 32.5891 114.166C34.283 114.627 34.3898 116.226 34.8975 117.681C32.1867 118.173 29.4553 118.561 26.7714 119.193ZM12.9524 113.02C10.8297 113.531 8.65986 114.648 6.88509 112.72C6.59846 112.408 6.34781 112.719 6.38165 111.76C6.41709 110.749 7.32772 110.098 8.11093 109.742C9.95233 108.905 12.5336 109.446 14.4892 109.323C17.6088 109.127 20.7839 108.474 23.8697 107.971C26.0062 107.623 28.213 106.85 30.3966 107.003C32.0825 107.12 34.1164 108.568 31.6594 109.625C29.4219 110.587 26.067 110.44 23.6428 110.856C20.0594 111.472 16.4888 112.168 12.9524 113.02ZM10.8789 102.955C11.0164 103.097 11.1539 103.238 11.2914 103.379C11.2686 103.374 12.1052 102.691 12.3268 102.671C13.403 102.577 14.4855 102.652 15.5633 102.59C18.0467 102.449 20.5497 102.013 22.9887 101.533C24.9755 101.142 26.9994 100.468 29.0444 100.637C30.8149 100.783 31.001 101.148 31.1169 102.87C26.5974 102.87 21.9421 102.774 17.5004 103.738C14.6087 104.366 11.422 106.234 9.9735 102.866C10.2755 102.896 10.5769 102.926 10.8789 102.955ZM13.7044 95.6653C14.825 96.5255 17.8801 95.0951 19.2233 94.9522C20.6819 94.7966 22.0542 94.6351 23.4678 94.269C24.7211 93.9439 28.8677 92.3205 29.8291 93.873C31.303 96.2515 25.3351 96.688 24.389 96.8058C20.4212 97.2998 16.3042 97.7379 12.4432 98.7868C12.8636 97.7465 13.284 96.7062 13.7044 95.6653ZM19.1472 87.5864C19.437 88.6859 28.4103 84.6344 28.5737 87.5789C28.6996 89.8381 19.6956 90.9637 18.0768 90.7654C18.456 89.7251 19.4645 88.7935 19.1472 87.5864ZM22.16 80.6757C22.3509 78.4581 22.646 78.4709 24.4107 78.262C25.7566 78.1027 27.6064 77.3075 27.2564 79.7249C26.9565 81.7949 21.968 82.9135 22.16 80.6757ZM25.3674 73.0455C25.792 71.8549 26.7476 73.4575 26.7677 74.0629C26.8211 75.674 25.609 75.3255 24.4424 75.3255C24.7671 74.573 25.076 73.8119 25.3674 73.0455ZM40.1362 64.1086C39.8982 63.8197 38.5624 63.7094 38.1821 63.5693C37.2471 63.2239 37.3799 62.4879 36.1837 63.2138C36.1239 63.153 36.2376 62.6073 36.1725 62.5822C36.1397 62.5694 35.3015 62.2507 35.0292 62.0749C34.3718 61.6507 33.7795 61.2355 33.1756 60.7031C32.5336 60.1376 31.8906 59.3169 31.1571 58.8665C30.8477 58.6768 30.5949 58.4077 30.2221 58.3496C29.2548 58.1993 29.532 58.8783 28.6864 59.0131C28.1654 59.0963 27.7862 58.4834 27.1051 58.7477C26.5165 58.9758 26.1749 59.8077 25.9126 60.3028C24.9591 62.1047 24.2235 64.0441 23.2901 65.8652C18.5168 75.1773 13.0915 84.1361 8.46788 93.5351C6.24096 98.063 3.91727 102.622 2.3498 107.434C1.21968 110.905 -1.33247 115.975 0.863257 119.443C2.45981 121.964 5.6566 123.053 8.20718 124.271C12.0449 126.104 15.5828 128.501 19.4629 130.278C24.0897 132.397 28.5827 134.614 33.0926 136.981C35.016 137.991 36.7516 139.445 38.6686 140.401C39.8411 140.985 41.6518 139.988 42.0336 141.328C43.5032 139.534 45.8819 140.73 47.5821 139.467C48.5822 138.724 49.313 137.261 50.147 136.346C51.3982 134.974 52.7563 133.701 54.0329 132.353C59.0997 127 63.7783 121.424 68.3881 115.674C72.7912 110.183 77.9352 104.996 81.6545 98.985C83.1315 96.599 83.3991 94.0969 82.4245 91.4609C81.7127 89.538 79.9982 86.6346 77.5492 87.9078C78.4778 86.3537 74.8955 84.6941 73.8087 84.3903C73.7923 84.3861 73.5781 85.5799 73.2751 85.55C73.383 85.5607 72.3644 82.905 71.917 82.5645C70.5886 81.5513 68.9725 80.3693 67.523 79.5352C66.1935 78.7704 64.7905 78.3915 63.5028 77.5356C61.9416 76.4985 60.5085 75.2685 58.9416 74.2383C57.4286 73.2438 55.7421 72.0681 54.0699 71.3844C52.6198 70.7912 51.3179 70.675 50.0132 69.7029C48.3992 68.5001 46.9915 67.6841 45.13 66.8554C43.5197 66.1386 41.288 65.5124 40.1362 64.1086Z" fill="black"/>
</svg>
